<svg width="20" height="20" viewBox="0 0 20 20" fill="none" xmlns="http://www.w3.org/2000/svg">
<path d="M10.0003 18.9596C5.05866 18.9596 1.04199 14.943 1.04199 10.0013C1.04199 5.05964 5.05866 1.04297 10.0003 1.04297C14.942 1.04297 18.9587 5.05964 18.9587 10.0013C18.9587 14.943 14.942 18.9596 10.0003 18.9596ZM10.0003 2.29297C5.75033 2.29297 2.29199 5.7513 2.29199 10.0013C2.29199 14.2513 5.75033 17.7096 10.0003 17.7096C14.2503 17.7096 17.7087 14.2513 17.7087 10.0013C17.7087 5.7513 14.2503 2.29297 10.0003 2.29297Z" fill="#B95962"/>
<path d="M13.3337 10.625H6.66699C6.32533 10.625 6.04199 10.3417 6.04199 10C6.04199 9.65833 6.32533 9.375 6.66699 9.375H13.3337C13.6753 9.375 13.9587 9.65833 13.9587 10C13.9587 10.3417 13.6753 10.625 13.3337 10.625Z" fill="#B95962"/>
<path d="M10 13.9596C9.65833 13.9596 9.375 13.6763 9.375 13.3346V6.66797C9.375 6.3263 9.65833 6.04297 10 6.04297C10.3417 6.04297 10.625 6.3263 10.625 6.66797V13.3346C10.625 13.6763 10.3417 13.9596 10 13.9596Z" fill="#B95962"/>
</svg>
