<svg width="41" height="40" viewBox="0 0 41 40" fill="none" xmlns="http://www.w3.org/2000/svg">
<rect x="0.5" width="40" height="40" rx="20" fill="#B95962"/>
<path d="M25.7397 30.75H15.2597C12.4597 30.75 10.6797 29.08 10.5197 26.29L9.99969 18.04C9.91969 16.79 10.3497 15.59 11.2097 14.68C12.0597 13.77 13.2597 13.25 14.4997 13.25C14.8197 13.25 15.1297 13.06 15.2797 12.76L15.9997 11.33C16.5897 10.16 18.0697 9.25 19.3597 9.25H21.6497C22.9397 9.25 24.4097 10.16 24.9997 11.32L25.7197 12.78C25.8697 13.06 26.1697 13.25 26.4997 13.25C27.7397 13.25 28.9397 13.77 29.7897 14.68C30.6497 15.6 31.0797 16.79 30.9997 18.04L30.4797 26.3C30.2997 29.13 28.5697 30.75 25.7397 30.75ZM19.3597 10.75C18.6197 10.75 17.6797 11.33 17.3397 12L16.6197 13.44C16.1997 14.25 15.3897 14.75 14.4997 14.75C13.6597 14.75 12.8797 15.09 12.2997 15.7C11.7297 16.31 11.4397 17.11 11.4997 17.94L12.0197 26.2C12.1397 28.22 13.2297 29.25 15.2597 29.25H25.7397C27.7597 29.25 28.8497 28.22 28.9797 26.2L29.4997 17.94C29.5497 17.11 29.2697 16.31 28.6997 15.7C28.1197 15.09 27.3397 14.75 26.4997 14.75C25.6097 14.75 24.7997 14.25 24.3797 13.46L23.6497 12C23.3197 11.34 22.3797 10.76 21.6397 10.76H19.3597V10.75Z" fill="white"/>
<path d="M22 16.75H19C18.59 16.75 18.25 16.41 18.25 16C18.25 15.59 18.59 15.25 19 15.25H22C22.41 15.25 22.75 15.59 22.75 16C22.75 16.41 22.41 16.75 22 16.75Z" fill="white"/>
<path d="M20.5 26.75C18.29 26.75 16.5 24.96 16.5 22.75C16.5 20.54 18.29 18.75 20.5 18.75C22.71 18.75 24.5 20.54 24.5 22.75C24.5 24.96 22.71 26.75 20.5 26.75ZM20.5 20.25C19.12 20.25 18 21.37 18 22.75C18 24.13 19.12 25.25 20.5 25.25C21.88 25.25 23 24.13 23 22.75C23 21.37 21.88 20.25 20.5 20.25Z" fill="white"/>
</svg>
